<?xml version="1.0" encoding="UTF-8"?>
<svg version="1.1" xmlns="http://www.w3.org/2000/svg" width="256" height="256">
<path d="M0 0 C1.26293884 -0.0049649 2.52587769 -0.00992981 3.8270874 -0.01504517 C7.27385857 -0.02808491 10.72061033 -0.03459807 14.16740227 -0.03905582 C16.32911813 -0.04200153 18.49082886 -0.04610914 20.65254211 -0.05056 C27.4399416 -0.06421561 34.22732916 -0.07389051 41.01474142 -0.07776189 C48.80480756 -0.08223158 56.59469728 -0.09973683 64.38470984 -0.12876248 C70.43518084 -0.15051034 76.4856027 -0.16047317 82.53611231 -0.16180301 C86.13597587 -0.16284214 89.73567319 -0.16855611 93.335495 -0.18662262 C119.32387761 -0.30954303 141.59145723 0.48883658 161.51367188 19.32128906 C175.89489057 34.58921103 179.37047004 52.68126193 179.38964844 72.93261719 C179.39461334 74.19555603 179.39957825 75.45849487 179.4046936 76.75970459 C179.41773335 80.20647575 179.42424651 83.65322751 179.42870426 87.10001945 C179.43164996 89.26173532 179.43575757 91.42344605 179.44020844 93.5851593 C179.45386405 100.37255879 179.46353894 107.15994635 179.46741033 113.94735861 C179.47188002 121.73742475 179.48938527 129.52731446 179.51841092 137.31732702 C179.54015878 143.36779803 179.55012161 149.41821989 179.55145144 155.4687295 C179.55249058 159.06859305 179.55820455 162.66829038 179.57627106 166.26811218 C179.69919147 192.2564948 178.90081186 214.52407441 160.06835938 234.44628906 C144.8004374 248.82750776 126.70838651 252.30308722 106.45703125 252.32226562 C105.19409241 252.32723053 103.93115356 252.33219543 102.62994385 252.33731079 C99.18317268 252.35035054 95.73642092 252.3568637 92.28962898 252.36132145 C90.12791312 252.36426715 87.96620239 252.36837476 85.80448914 252.37282562 C79.01708965 252.38648123 72.22970209 252.39615613 65.44228983 252.40002751 C57.65222369 252.40449721 49.86233397 252.42200246 42.07232141 252.45102811 C36.02185041 252.47277597 29.97142855 252.4827388 23.92091894 252.48406863 C20.32105538 252.48510777 16.72135806 252.49082174 13.12153625 252.50888824 C-12.86684636 252.63180866 -35.13442598 251.83342904 -55.05664062 233.00097656 C-69.43785932 217.73305459 -72.91343879 199.6410037 -72.93261719 179.38964844 C-72.93758209 178.12670959 -72.942547 176.86377075 -72.94766235 175.56256104 C-72.9607021 172.11578987 -72.96721526 168.66903811 -72.97167301 165.22224617 C-72.97461871 163.06053031 -72.97872632 160.89881957 -72.98317719 158.73710632 C-72.9968328 151.94970684 -73.00650769 145.16231928 -73.01037908 138.37490702 C-73.01484877 130.58484088 -73.03235402 122.79495116 -73.06137967 115.0049386 C-73.08312753 108.9544676 -73.09309036 102.90404573 -73.09442019 96.85353613 C-73.09545933 93.25367257 -73.1011733 89.65397525 -73.11923981 86.05415344 C-73.24216022 60.06577083 -72.44378061 37.79819121 -53.61132812 17.87597656 C-38.34340615 3.49475786 -20.25135526 0.0191784 0 0 Z " fill="#2E5BFE" transform="translate(74.771484375,1.8388671875)"/>
<path d="M0 0 C1.34159628 -0.00435699 2.68319008 -0.00954339 4.02478027 -0.01548767 C7.64060947 -0.028783 11.25633353 -0.02946699 14.87218237 -0.02692437 C17.9036619 -0.02584818 20.93512072 -0.0307545 23.96659577 -0.03552979 C31.12520748 -0.04659228 38.28376671 -0.04708083 45.44238281 -0.04101562 C52.79850953 -0.0349784 60.15444485 -0.04728791 67.51053894 -0.06858569 C73.85313846 -0.08626595 80.19567741 -0.09219297 86.53830063 -0.08894795 C90.31460734 -0.08714513 94.09077749 -0.08967017 97.86706161 -0.10366249 C101.42129086 -0.11634144 104.97522417 -0.11420302 108.52944946 -0.1012516 C110.43550405 -0.09780128 112.34156811 -0.10898916 114.24758911 -0.12081909 C129.94053348 -0.02618752 143.77523375 4.47866142 155.38720703 15.2746582 C167.22526945 28.14303156 170.91114785 41.34816449 170.68017578 58.6965332 C170.67593094 59.92253235 170.6716861 61.14853149 170.66731262 62.41168213 C170.65067557 66.28290865 170.61305113 70.15359212 170.57470703 74.0246582 C170.55964086 76.66787979 170.54595586 79.31110963 170.53369141 81.9543457 C170.50082123 88.39463152 170.45077345 94.83460605 170.38720703 101.2746582 C164.41972471 104.45329509 158.80733722 105.69586711 152.19970703 106.8996582 C151.0018457 107.118396 149.80398437 107.33713379 148.56982422 107.5625 C132.95625995 110.15979077 117.18135906 110.2036263 101.38720703 110.2746582 C105.8635911 110.9833633 110.16490726 111.40257357 114.69580078 111.4074707 C116.43506836 111.4094043 116.43506836 111.4094043 118.20947266 111.41137695 C119.4025 111.40750977 120.59552734 111.40364258 121.82470703 111.3996582 C123.60844727 111.40545898 123.60844727 111.40545898 125.42822266 111.41137695 C131.50956551 111.40462366 137.37624734 111.21317236 143.38720703 110.2746582 C142.38720703 112.2746582 142.38720703 112.2746582 140.48876953 113.0559082 C139.67150391 113.2930957 138.85423828 113.5302832 138.01220703 113.7746582 C137.22072266 114.0118457 136.42923828 114.2490332 135.61376953 114.4934082 C125.07825015 117.04438142 114.86646567 117.65159021 104.07470703 117.8371582 C101.78504756 117.88138999 99.49551145 117.92822897 97.20600891 117.97996521 C95.79366093 118.01142095 94.38120465 118.03845629 92.96867371 118.06019592 C89.02005204 118.14281159 85.26530443 118.52966417 81.38720703 119.2746582 C85.21439074 120.14970997 88.86071612 120.46098315 92.78173828 120.59106445 C93.98378906 120.63295898 95.18583984 120.67485352 96.42431641 120.71801758 C97.67019531 120.75733398 98.91607422 120.79665039 100.19970703 120.8371582 C102.0975293 120.90193359 102.0975293 120.90193359 104.03369141 120.96801758 C107.15142592 121.0739029 110.26923738 121.17598225 113.38720703 121.2746582 C105.26012268 126.69271444 94.20258267 125.68413476 84.76220703 125.8996582 C83.36244579 125.93793673 81.96270561 125.97699377 80.56298828 126.0168457 C77.17118818 126.1104126 73.77938359 126.19615628 70.38720703 126.2746582 C73.36525981 126.92601258 76.34448962 127.5708456 79.32470703 128.2121582 C80.15550781 128.39456055 80.98630859 128.57696289 81.84228516 128.76489258 C87.35073926 129.94374462 92.77906458 130.73704616 98.38720703 131.2746582 C95.17094775 132.99030814 93.05558283 133.5236706 89.38720703 133.4621582 C88.54158203 133.45571289 87.69595703 133.44926758 86.82470703 133.44262695 C84.38720703 133.2746582 84.38720703 133.2746582 82.52783203 132.7668457 C79.38837887 132.04500063 76.35163042 132.18239502 73.13720703 132.2121582 C71.87392578 132.22118164 70.61064453 132.23020508 69.30908203 132.23950195 C68.34486328 132.25110352 67.38064453 132.26270508 66.38720703 132.2746582 C72.03520815 134.1163977 77.47228431 134.82241059 83.38720703 135.2746582 C83.05720703 135.9346582 82.72720703 136.5946582 82.38720703 137.2746582 C76.02732899 137.47655909 70.53499574 136.9024415 64.38720703 135.2746582 C65.04720703 136.5946582 65.70720703 137.9146582 66.38720703 139.2746582 C60.63720703 137.3996582 60.63720703 137.3996582 58.38720703 136.2746582 C53.29338475 135.89021879 50.58575452 136.39565421 46.38720703 139.2746582 C45.72720703 139.2746582 45.06720703 139.2746582 44.38720703 139.2746582 C44.38720703 138.6146582 44.38720703 137.9546582 44.38720703 137.2746582 C45.04720703 137.2746582 45.70720703 137.2746582 46.38720703 137.2746582 C46.38720703 136.6146582 46.38720703 135.9546582 46.38720703 135.2746582 C45.56929687 135.4912207 45.56929687 135.4912207 44.73486328 135.7121582 C39.13760779 137.08994417 34.14774959 137.45753257 28.38720703 137.2746582 C28.05720703 136.6146582 27.72720703 135.9546582 27.38720703 135.2746582 C28.19544922 135.14188477 29.00369141 135.00911133 29.83642578 134.87231445 C31.439375 134.60741211 31.439375 134.60741211 33.07470703 134.3371582 C34.13044922 134.16313477 35.18619141 133.98911133 36.27392578 133.80981445 C38.98655531 133.34352807 41.68824321 132.81445097 44.38720703 132.2746582 C33.49720703 132.2746582 22.60720703 132.2746582 11.38720703 132.2746582 C11.38720703 131.9446582 11.38720703 131.6146582 11.38720703 131.2746582 C12.29986328 131.23598633 12.29986328 131.23598633 13.23095703 131.1965332 C21.9154816 130.63459338 30.02084366 128.53158182 38.38720703 126.2746582 C37.55995117 126.25483887 36.73269531 126.23501953 35.88037109 126.21459961 C32.13232897 126.11934608 28.38484386 126.00966711 24.63720703 125.8996582 C23.33525391 125.8687207 22.03330078 125.8377832 20.69189453 125.8059082 C19.44150391 125.76723633 18.19111328 125.72856445 16.90283203 125.6887207 C15.17468262 125.64158936 15.17468262 125.64158936 13.41162109 125.59350586 C10.53886281 125.29064645 8.82541092 124.7658344 6.38720703 123.2746582 C6.38720703 122.9446582 6.38720703 122.6146582 6.38720703 122.2746582 C6.98782959 122.21930908 7.58845215 122.16395996 8.20727539 122.10693359 C10.91353834 121.85495039 13.61910588 121.5961465 16.32470703 121.3371582 C17.27023438 121.25014648 18.21576172 121.16313477 19.18994141 121.07348633 C20.0890625 120.98647461 20.98818359 120.89946289 21.91455078 120.80981445 C22.74720459 120.73126221 23.5798584 120.65270996 24.43774414 120.57177734 C26.38781903 120.47154422 26.38781903 120.47154422 27.38720703 119.2746582 C23.70186897 118.12428812 20.18443496 118.1173159 16.34033203 118.0637207 C14.92235297 118.03558998 13.50438442 118.00692536 12.08642578 117.9777832 C9.88217189 117.93708034 7.67810079 117.90015657 5.47363281 117.87329102 C-10.8865137 117.6572909 -25.4120624 114.73266535 -40.86401367 109.40356445 C-43.09761156 108.63334108 -45.33603835 107.87866016 -47.57568359 107.1262207 C-49.00370836 106.6427025 -50.43145457 106.15836062 -51.85888672 105.6730957 C-52.52536728 105.44705658 -53.19184784 105.22101746 -53.87852478 104.98812866 C-58.49478497 103.3926662 -58.49478497 103.3926662 -59.61279297 102.2746582 C-59.72737867 100.56955882 -59.77241919 98.85973579 -59.78979492 97.15087891 C-59.80904778 95.50699944 -59.80904778 95.50699944 -59.82868958 93.82991028 C-59.83607651 92.63218491 -59.84346344 91.43445953 -59.85107422 90.20043945 C-59.85914597 88.96988327 -59.86721771 87.73932709 -59.87553406 86.47148132 C-59.88940589 83.85274678 -59.90011407 81.23399391 -59.90795898 78.61523438 C-59.9210454 74.64920876 -59.96886885 70.68381535 -60.01318359 66.71801758 C-60.02332301 64.17049766 -60.03183518 61.62297064 -60.03857422 59.07543945 C-60.05608231 57.90402908 -60.07359039 56.73261871 -60.09162903 55.52571106 C-60.0476832 38.44802994 -54.20099623 25.87174041 -43.01513672 13.4621582 C-40.72854483 11.38005828 -39.62790179 10.60889659 -36.61279297 10.2746582 C-36.61279297 9.6146582 -36.61279297 8.9546582 -36.61279297 8.2746582 C-34.6614999 7.30207012 -32.7012782 6.34739126 -30.73779297 5.3996582 C-29.64724609 4.86598633 -28.55669922 4.33231445 -27.43310547 3.7824707 C-18.63413252 0.02083519 -9.42440056 -0.01889627 0 0 Z " fill="#4A65FE" transform="translate(72.61279296875,13.725341796875)"/>
<path d="M0 0 C1.26293884 -0.0049649 2.52587769 -0.00992981 3.8270874 -0.01504517 C7.27385857 -0.02808491 10.72061033 -0.03459807 14.16740227 -0.03905582 C16.32911813 -0.04200153 18.49082886 -0.04610914 20.65254211 -0.05056 C27.4399416 -0.06421561 34.22732916 -0.07389051 41.01474142 -0.07776189 C48.80480756 -0.08223158 56.59469728 -0.09973683 64.38470984 -0.12876248 C70.43518084 -0.15051034 76.4856027 -0.16047317 82.53611231 -0.16180301 C86.13597587 -0.16284214 89.73567319 -0.16855611 93.335495 -0.18662262 C119.32387761 -0.30954303 141.59145723 0.48883658 161.51367188 19.32128906 C175.89489057 34.58921103 179.37047004 52.68126193 179.38964844 72.93261719 C179.39461334 74.19555603 179.39957825 75.45849487 179.4046936 76.75970459 C179.41773335 80.20647575 179.42424651 83.65322751 179.42870426 87.10001945 C179.43164996 89.26173532 179.43575757 91.42344605 179.44020844 93.5851593 C179.45386405 100.37255879 179.46353894 107.15994635 179.46741033 113.94735861 C179.47188002 121.73742475 179.48938527 129.52731446 179.51841092 137.31732702 C179.54015878 143.36779803 179.55012161 149.41821989 179.55145144 155.4687295 C179.55249058 159.06859305 179.55820455 162.66829038 179.57627106 166.26811218 C179.69919147 192.2564948 178.90081186 214.52407441 160.06835938 234.44628906 C144.8004374 248.82750776 126.70838651 252.30308722 106.45703125 252.32226562 C105.19409241 252.32723053 103.93115356 252.33219543 102.62994385 252.33731079 C99.18317268 252.35035054 95.73642092 252.3568637 92.28962898 252.36132145 C90.12791312 252.36426715 87.96620239 252.36837476 85.80448914 252.37282562 C79.01708965 252.38648123 72.22970209 252.39615613 65.44228983 252.40002751 C57.65222369 252.40449721 49.86233397 252.42200246 42.07232141 252.45102811 C36.02185041 252.47277597 29.97142855 252.4827388 23.92091894 252.48406863 C20.32105538 252.48510777 16.72135806 252.49082174 13.12153625 252.50888824 C-12.86684636 252.63180866 -35.13442598 251.83342904 -55.05664062 233.00097656 C-69.43785932 217.73305459 -72.91343879 199.6410037 -72.93261719 179.38964844 C-72.93758209 178.12670959 -72.942547 176.86377075 -72.94766235 175.56256104 C-72.9607021 172.11578987 -72.96721526 168.66903811 -72.97167301 165.22224617 C-72.97461871 163.06053031 -72.97872632 160.89881957 -72.98317719 158.73710632 C-72.9968328 151.94970684 -73.00650769 145.16231928 -73.01037908 138.37490702 C-73.01484877 130.58484088 -73.03235402 122.79495116 -73.06137967 115.0049386 C-73.08312753 108.9544676 -73.09309036 102.90404573 -73.09442019 96.85353613 C-73.09545933 93.25367257 -73.1011733 89.65397525 -73.11923981 86.05415344 C-73.24216022 60.06577083 -72.44378061 37.79819121 -53.61132812 17.87597656 C-38.34340615 3.49475786 -20.25135526 0.0191784 0 0 Z M-34.02148438 17.84863281 C-34.93414062 18.285625 -35.84679687 18.72261719 -36.78710938 19.17285156 C-37.44195312 19.49898437 -38.09679687 19.82511719 -38.77148438 20.16113281 C-38.77148438 20.82113281 -38.77148438 21.48113281 -38.77148438 22.16113281 C-39.85429688 22.50144531 -39.85429688 22.50144531 -40.95898438 22.84863281 C-49.53838918 26.85235505 -55.45893591 36.58440702 -58.77148438 45.16113281 C-61.51975878 53.74346861 -62.1935746 61.76175211 -62.09960938 70.73144531 C-62.09773621 71.97489716 -62.09586304 73.218349 -62.09393311 74.4994812 C-62.08725843 77.1028719 -62.0734367 79.70625337 -62.05273438 82.30957031 C-62.02129854 86.30977976 -62.01172925 90.30924943 -62.00585938 94.30957031 C-61.99669936 96.8460335 -61.98632681 99.38249265 -61.97460938 101.91894531 C-61.9703595 103.11778351 -61.96610962 104.3166217 -61.96173096 105.55178833 C-61.95212341 106.65408783 -61.94251587 107.75638733 -61.93261719 108.89208984 C-61.92578918 109.86405304 -61.91896118 110.83601624 -61.91192627 111.83743286 C-61.92251556 114.18610317 -61.92251556 114.18610317 -60.77148438 116.16113281 C-60.6941645 118.63648895 -60.67715154 121.08269653 -60.70556641 123.55737305 C-60.71023926 124.32028152 -60.71491211 125.08319 -60.71972656 125.86921692 C-60.73024489 127.5301752 -60.74291269 129.19112091 -60.7574501 130.85204887 C-60.77945789 133.48901972 -60.79354932 136.1259187 -60.80514526 138.76295471 C-60.8387345 146.26256161 -60.87998285 153.76205155 -60.94287109 161.26147461 C-60.98076075 165.8479132 -61.00361947 170.43422747 -61.01717758 175.02079964 C-61.02518051 176.76175446 -61.0387156 178.50269369 -61.05810928 180.24355888 C-61.26137713 198.83234566 -57.73263022 213.85788437 -44.42382812 227.74707031 C-32.27466789 238.80477433 -18.26936999 241.46339201 -2.41162109 241.45166016 C-1.09816208 241.45837738 0.21529694 241.4650946 1.56855774 241.47201538 C5.1495152 241.48957547 8.73037687 241.49436663 12.31137323 241.49564695 C14.55668138 241.49707531 16.80196572 241.50135787 19.04726791 241.50664139 C26.90359778 241.52511178 34.75986008 241.53331615 42.61621094 241.53173828 C49.90130192 241.53053913 57.18609557 241.55160449 64.47111142 241.58322561 C70.75599034 241.60951832 77.04077297 241.62010011 83.32570636 241.61882746 C87.06584776 241.61832143 90.80572484 241.62380224 94.5458107 241.64518356 C98.07055171 241.6647857 101.5947823 241.66454368 105.11954308 241.6501503 C107.00238445 241.64711747 108.88522711 241.66358534 110.76799011 241.68103027 C126.35820008 241.56831806 141.01283358 237.19435609 152.60351562 226.34863281 C162.19742934 215.99835245 167.26549216 202.88230494 167.43383789 188.86303711 C167.44372333 188.14163953 167.45360876 187.42024195 167.46379375 186.67698383 C167.49539878 184.27980619 167.5202189 181.88260951 167.54492188 179.48535156 C167.56579635 177.78311747 167.58702375 176.08088768 167.60858154 174.37866211 C167.67645598 168.86872205 167.73412767 163.35869549 167.79101562 157.84863281 C167.81102406 155.96269691 167.83107416 154.07676144 167.85116577 152.19082642 C167.9607666 141.81417793 168.06027468 131.43746385 168.15373516 121.06065845 C168.20579339 115.36746625 168.26694461 109.67445598 168.3359375 103.98144531 C168.41509148 97.44114004 168.47376445 90.90093826 168.51461792 84.36026001 C168.53202049 82.04523558 168.55621554 79.73025081 168.587677 77.41537476 C168.84495211 57.74693718 166.85699377 41.54110443 152.88476562 26.59082031 C142.57283079 17.15843286 130.26639839 12.06223493 116.34872437 12.02069092 C115.19666504 12.01498077 114.04460571 12.00927063 112.8576355 12.00338745 C110.98266891 12.00171066 110.98266891 12.00171066 109.06982422 12 C107.72881943 11.99536624 106.38781594 11.99034084 105.04681396 11.98495483 C101.41424845 11.97188017 97.78170139 11.96539523 94.14911604 11.96094418 C91.87454071 11.95800469 89.59997032 11.95389821 87.32539749 11.94944 C80.19414462 11.93577637 73.06290317 11.92610489 65.93163812 11.92223811 C57.72721215 11.91776383 49.52295331 11.90024053 41.31857812 11.87123752 C34.95908314 11.8495446 28.59963491 11.83952974 22.24010336 11.83819699 C18.45031073 11.83715414 14.66067544 11.83135853 10.87092209 11.81337738 C7.30034755 11.79676499 3.73004639 11.79480412 0.15944672 11.80351639 C-1.75620024 11.80464043 -3.67183866 11.79102415 -5.58743286 11.77676392 C-15.62729928 11.82459504 -24.93114367 13.42307221 -34.02148438 17.84863281 Z " fill="#2008BC" transform="translate(74.771484375,1.8388671875)"/>
<path d="M0 0 C7.44342383 0.55048937 14.84353895 0.64854913 22.3046875 0.625 C23.54927734 0.62886719 24.79386719 0.63273437 26.07617188 0.63671875 C32.63399231 0.62976822 38.99305064 0.38528783 45.4921875 -0.5 C44.4921875 1.5 44.4921875 1.5 41.0546875 2.9375 C22.03672211 8.71028764 2.17313275 8.20289816 -17.5078125 8.5 C-13.03142843 9.2087051 -8.73011227 9.62791537 -4.19921875 9.6328125 C-3.03970703 9.63410156 -1.88019531 9.63539062 -0.68554688 9.63671875 C0.50748047 9.63285156 1.70050781 9.62898438 2.9296875 9.625 C4.71342773 9.63080078 4.71342773 9.63080078 6.53320312 9.63671875 C12.61454598 9.62996545 18.48122781 9.43851415 24.4921875 8.5 C23.4921875 10.5 23.4921875 10.5 21.59375 11.28125 C20.77648437 11.5184375 19.95921875 11.755625 19.1171875 12 C18.32570312 12.2371875 17.53421875 12.474375 16.71875 12.71875 C6.18323062 15.26972321 -4.02855386 15.876932 -14.8203125 16.0625 C-17.10997197 16.10673178 -19.39950808 16.15357077 -21.68901062 16.20530701 C-23.1013586 16.23676275 -24.51381488 16.26379808 -25.92634583 16.28553772 C-29.87496749 16.36815338 -33.6297151 16.75500597 -37.5078125 17.5 C-33.68062879 18.37505177 -30.03430341 18.68632495 -26.11328125 18.81640625 C-24.91123047 18.85830078 -23.70917969 18.90019531 -22.47070312 18.94335938 C-20.60188477 19.00233398 -20.60188477 19.00233398 -18.6953125 19.0625 C-17.43009766 19.10568359 -16.16488281 19.14886719 -14.86132812 19.19335938 C-11.74359361 19.2992447 -8.62578215 19.40132405 -5.5078125 19.5 C-13.63489686 24.91805624 -24.69243686 23.90947656 -34.1328125 24.125 C-35.53257374 24.16327852 -36.93231392 24.20233557 -38.33203125 24.2421875 C-41.72383135 24.3357544 -45.11563594 24.42149808 -48.5078125 24.5 C-45.52975972 25.15135437 -42.55052991 25.79618739 -39.5703125 26.4375 C-38.73951172 26.61990234 -37.90871094 26.80230469 -37.05273438 26.99023438 C-31.54428027 28.16908642 -26.11595495 28.96238796 -20.5078125 29.5 C-23.72407178 31.21564993 -25.8394367 31.7490124 -29.5078125 31.6875 C-30.3534375 31.68105469 -31.1990625 31.67460937 -32.0703125 31.66796875 C-34.5078125 31.5 -34.5078125 31.5 -36.3671875 30.9921875 C-39.50664066 30.27034243 -42.54338911 30.40773682 -45.7578125 30.4375 C-47.65273437 30.45103516 -47.65273437 30.45103516 -49.5859375 30.46484375 C-50.55015625 30.47644531 -51.514375 30.48804688 -52.5078125 30.5 C-46.85981138 32.3417395 -41.42273522 33.04775239 -35.5078125 33.5 C-35.8378125 34.16 -36.1678125 34.82 -36.5078125 35.5 C-42.86769054 35.70190089 -48.36002379 35.1277833 -54.5078125 33.5 C-53.5178125 35.48 -53.5178125 35.48 -52.5078125 37.5 C-58.2578125 35.625 -58.2578125 35.625 -60.5078125 34.5 C-65.60163478 34.11556058 -68.30926501 34.62099601 -72.5078125 37.5 C-73.1678125 37.5 -73.8278125 37.5 -74.5078125 37.5 C-74.5078125 36.84 -74.5078125 36.18 -74.5078125 35.5 C-73.8478125 35.5 -73.1878125 35.5 -72.5078125 35.5 C-72.5078125 34.84 -72.5078125 34.18 -72.5078125 33.5 C-73.05308594 33.644375 -73.59835938 33.78875 -74.16015625 33.9375 C-79.75741174 35.31528597 -84.74726995 35.68287437 -90.5078125 35.5 C-90.8378125 34.84 -91.1678125 34.18 -91.5078125 33.5 C-90.29544922 33.30083984 -90.29544922 33.30083984 -89.05859375 33.09765625 C-87.98996094 32.92105469 -86.92132813 32.74445313 -85.8203125 32.5625 C-84.76457031 32.38847656 -83.70882812 32.21445313 -82.62109375 32.03515625 C-79.90846422 31.56886987 -77.20677632 31.03979276 -74.5078125 30.5 C-85.3978125 30.5 -96.2878125 30.5 -107.5078125 30.5 C-107.5078125 30.17 -107.5078125 29.84 -107.5078125 29.5 C-106.899375 29.47421875 -106.2909375 29.4484375 -105.6640625 29.421875 C-96.97953793 28.85993517 -88.87417587 26.75692362 -80.5078125 24.5 C-81.33506836 24.48018066 -82.16232422 24.46036133 -83.01464844 24.43994141 C-86.76269056 24.34468788 -90.51017567 24.23500891 -94.2578125 24.125 C-95.55976562 24.0940625 -96.86171875 24.063125 -98.203125 24.03125 C-99.45351562 23.99257812 -100.70390625 23.95390625 -101.9921875 23.9140625 C-103.14428711 23.8826416 -104.29638672 23.8512207 -105.48339844 23.81884766 C-108.35615672 23.51598825 -110.06960861 22.9911762 -112.5078125 21.5 C-112.5078125 21.17 -112.5078125 20.84 -112.5078125 20.5 C-111.90718994 20.44465088 -111.30656738 20.38930176 -110.68774414 20.33227539 C-107.98148119 20.08029218 -105.27591366 19.8214883 -102.5703125 19.5625 C-101.62478516 19.47548828 -100.67925781 19.38847656 -99.70507812 19.29882812 C-98.35639648 19.16831055 -98.35639648 19.16831055 -96.98046875 19.03515625 C-96.14781494 18.956604 -95.31516113 18.87805176 -94.45727539 18.79711914 C-92.5072005 18.69688602 -92.5072005 18.69688602 -91.5078125 17.5 C-95.19315057 16.34962991 -98.71058457 16.34265769 -102.5546875 16.2890625 C-103.97266656 16.26093178 -105.39063511 16.23226716 -106.80859375 16.203125 C-109.01284765 16.16242214 -111.21691874 16.12549837 -113.42138672 16.09863281 C-126.56016068 15.92516391 -139.40672269 15.06074814 -151.5078125 9.5 C-149.5078125 8.5 -149.5078125 8.5 -147.79272461 8.92919922 C-144.80294412 9.67608529 -142.03034588 9.62982215 -138.94921875 9.6328125 C-137.03979492 9.63474609 -137.03979492 9.63474609 -135.09179688 9.63671875 C-134.10119263 9.63357666 -134.10119263 9.63357666 -133.09057617 9.63037109 C-131.0804893 9.62502706 -129.07062676 9.63032271 -127.06054688 9.63671875 C-125.78630859 9.63542969 -124.51207031 9.63414063 -123.19921875 9.6328125 C-122.03592041 9.63168457 -120.87262207 9.63055664 -119.67407227 9.62939453 C-116.82817097 9.51309199 -114.27353899 9.15323949 -111.5078125 8.5 C-112.48314941 8.49589111 -113.45848633 8.49178223 -114.46337891 8.48754883 C-152.80528178 8.24652986 -152.80528178 8.24652986 -169.5078125 2.5 C-169.8378125 1.84 -170.1678125 1.18 -170.5078125 0.5 C-161.66680618 0.43025377 -152.82589569 0.37706443 -143.9846735 0.34456348 C-139.87859894 0.32895862 -135.77271369 0.30781602 -131.66674805 0.27368164 C-127.69856869 0.24090206 -123.73057054 0.22310811 -119.76226616 0.21536827 C-118.25411569 0.20985793 -116.74597427 0.19909815 -115.23790169 0.18280983 C-107.18374762 0.09933913 -99.98839977 0.22816764 -92.5078125 3.5 C-91.17681465 3.9856163 -89.8437344 4.46559837 -88.5078125 4.9375 C-84.09468483 6.61021775 -79.8006342 8.54239381 -75.5078125 10.5 C-75.5078125 11.16 -75.5078125 11.82 -75.5078125 12.5 C-74.4559375 12.87125 -74.4559375 12.87125 -73.3828125 13.25 C-70.13778791 14.66088026 -67.40464513 16.47895398 -64.5078125 18.5 C-59.81522713 16.35578037 -55.77566245 13.24567906 -51.578125 10.27734375 C-48.43200175 8.45611464 -46.09742505 7.84824599 -42.5078125 7.5 C-42.5078125 6.84 -42.5078125 6.18 -42.5078125 5.5 C-39.98904957 4.68057052 -37.4681058 3.86934931 -34.9453125 3.0625 C-33.88860352 2.71735352 -33.88860352 2.71735352 -32.81054688 2.36523438 C-21.96877123 -1.08215051 -11.25257436 -0.93562608 0 0 Z " fill="#EFF3FE" transform="translate(191.5078125,115.5)"/>
<path d="M0 0 C1.65 0 3.3 0 5 0 C4.34 0.66 3.68 1.32 3 2 C18.23418395 6.54676636 32.82413308 7.62446779 48.60839844 7.81030273 C49.7464241 7.82386055 49.7464241 7.82386055 50.90744019 7.83769226 C52.32725559 7.85162394 53.74714002 7.86014874 55.16702271 7.8618927 C59.8633418 7.89082302 64.35840631 8.34993133 69 9 C69 9.33 69 9.66 69 10 C59.84533555 10.82276219 50.75293328 11.21087096 41.5625 11.25 C40.35529297 11.270625 39.14808594 11.29125 37.90429688 11.3125 C25.87577499 11.36398645 11.83919844 9.63790181 1 4 C0.17578125 1.87109375 0.17578125 1.87109375 0 0 Z " fill="#7193FE" transform="translate(19,115)"/>
<path d="M0 0 C-1.32633063 0.6600951 -2.66160815 1.30221603 -4 1.9375 C-4.7425 2.29714844 -5.485 2.65679687 -6.25 3.02734375 C-13.82425645 5.70630661 -22.07519952 5.15591097 -30 5.125 C-31.19085205 5.12306641 -32.3817041 5.12113281 -33.60864258 5.11914062 C-42.4400969 5.07599898 -51.20043484 4.75463346 -60 4 C-60 3.67 -60 3.34 -60 3 C-54.29335123 2.210852 -48.6435618 1.88101071 -42.88671875 1.75390625 C-42.14664581 1.73725922 -41.40657288 1.72061218 -40.64407349 1.70346069 C-37.55097905 1.63707148 -34.45786755 1.57553512 -31.36450195 1.52319336 C-22.87611419 1.37323454 -14.73754126 1.08627282 -6.39379883 -0.67993164 C-3.92674332 -1.00979495 -2.34349323 -0.7768467 0 0 Z " fill="#6C8FFE" transform="translate(225,121)"/>
<path d="M0 0 C4.47911082 -0.05856225 8.9581217 -0.09378482 13.4375 -0.125 C14.69755859 -0.14175781 15.95761719 -0.15851563 17.25585938 -0.17578125 C24.17984933 -0.21193786 30.31774582 0.15310929 37 2 C37 2.33 37 2.66 37 3 C36.26362305 3.08564209 35.52724609 3.17128418 34.76855469 3.25952148 C31.42871531 3.64948539 28.08935944 4.04344826 24.75 4.4375 C23.01169922 4.63956055 23.01169922 4.63956055 21.23828125 4.84570312 C20.12324219 4.97783203 19.00820312 5.10996094 17.859375 5.24609375 C16.83295898 5.36654053 15.80654297 5.4869873 14.74902344 5.61108398 C12.07490187 5.9276672 12.07490187 5.9276672 9.83691406 6.60571289 C6.93397189 7.22881917 4.70101268 6.04357308 2 5 C2 4.67 2 4.34 2 4 C6.455 3.505 6.455 3.505 11 3 C7.37 2.34 3.74 1.68 0 1 C0 0.67 0 0.34 0 0 Z " fill="#7BA5FE" transform="translate(68,131)"/>
<path d="M0 0 C1.10859375 0.00322266 2.2171875 0.00644531 3.359375 0.00976562 C4.50148437 0.01814453 5.64359375 0.02652344 6.8203125 0.03515625 C8.56828125 0.04192383 8.56828125 0.04192383 10.3515625 0.04882812 C13.21619895 0.06056844 16.08072883 0.07699055 18.9453125 0.09765625 C18.9453125 0.42765625 18.9453125 0.75765625 18.9453125 1.09765625 C6.94578624 3.5817687 -3.85896853 4.37897862 -16.0546875 3.09765625 C-11.00279454 0.18310262 -5.72669644 -0.02951905 0 0 Z " fill="#7AA5FE" transform="translate(166.0546875,130.90234375)"/>
<path d="M0 0 C6.93 0.99 13.86 1.98 21 3 C17.21478269 4.89260865 15.99131446 5.25442753 12 5.1875 C11.154375 5.18105469 10.30875 5.17460937 9.4375 5.16796875 C7 5 7 5 5.11816406 4.49560547 C2.88980763 3.97421732 0.95720772 3.88601994 -1.328125 3.90234375 C-2.52695313 3.90717773 -2.52695313 3.90717773 -3.75 3.91210938 C-4.575 3.92048828 -5.4 3.92886719 -6.25 3.9375 C-7.09046875 3.94201172 -7.9309375 3.94652344 -8.796875 3.95117188 C-10.86461401 3.96292039 -12.93231624 3.98085478 -15 4 C-15 3.34 -15 2.68 -15 2 C-10.05 2 -5.1 2 0 2 C0 1.34 0 0.68 0 0 Z " fill="#D3DBFE" transform="translate(150,142)"/>
<path d="M0 0 C0 0.33 0 0.66 0 1 C7.26 1.33 14.52 1.66 22 2 C22 2.33 22 2.66 22 3 C-6.93263641 3.20638953 -6.93263641 3.20638953 -21 2 C-21 1.67 -21 1.34 -21 1 C-13.96094956 0.06145994 -7.09727428 -0.10808032 0 0 Z " fill="#80A3FE" transform="translate(186,123)"/>
<path d="M0 0 C-1.6210103 0.69685498 -3.24696066 1.38222861 -4.875 2.0625 C-5.77992188 2.44535156 -6.68484375 2.82820313 -7.6171875 3.22265625 C-10 4 -10 4 -12 3 C-13.59262066 2.84824451 -15.19064856 2.75099675 -16.7890625 2.68359375 C-17.73007813 2.64169922 -18.67109375 2.59980469 -19.640625 2.55664062 C-20.62546875 2.51732422 -21.6103125 2.47800781 -22.625 2.4375 C-23.61757812 2.39431641 -24.61015625 2.35113281 -25.6328125 2.30664062 C-28.08839838 2.20038931 -30.54408703 2.09835036 -33 2 C-33 1.67 -33 1.34 -33 1 C-32.30438965 0.97494385 -31.6087793 0.9498877 -30.89208984 0.92407227 C-27.71956545 0.80754026 -24.54729645 0.68507432 -21.375 0.5625 C-19.73337891 0.50352539 -19.73337891 0.50352539 -18.05859375 0.44335938 C-16.46337891 0.38051758 -16.46337891 0.38051758 -14.8359375 0.31640625 C-13.37486572 0.26141968 -13.37486572 0.26141968 -11.88427734 0.20532227 C-8.93703353 0.04864622 -8.93703353 0.04864622 -5.82275391 -0.58227539 C-3 -1 -3 -1 0 0 Z " fill="#D6DFFE" transform="translate(237,116)"/>
<path d="M0 0 C9.57 0.33 19.14 0.66 29 1 C29 1.33 29 1.66 29 2 C24.91744345 2.22601462 20.83403925 2.42774673 16.75 2.625 C15.01169922 2.72167969 15.01169922 2.72167969 13.23828125 2.8203125 C12.12324219 2.871875 11.00820313 2.9234375 9.859375 2.9765625 C8.31975098 3.05511475 8.31975098 3.05511475 6.74902344 3.13525391 C3.93033131 2.99657225 2.38172237 2.45992606 0 1 C0 0.67 0 0.34 0 0 Z " fill="#D8E0FE" transform="translate(21,116)"/>
<path d="M0 0 C0 0.66 0 1.32 0 2 C-2.76565382 2.92188461 -4.38283702 3.11785222 -7.23046875 3.09765625 C-8.03291016 3.09443359 -8.83535156 3.09121094 -9.66210938 3.08789062 C-10.49548828 3.07951172 -11.32886719 3.07113281 -12.1875 3.0625 C-13.03248047 3.05798828 -13.87746094 3.05347656 -14.74804688 3.04882812 C-16.83206155 3.03705403 -18.91603977 3.0191189 -21 3 C-21 2.67 -21 2.34 -21 2 C-13.94546999 0.79556805 -7.16562789 -0.28100502 0 0 Z " fill="#2039FE" transform="translate(188,132)"/>
<path d="M0 0 C0.66 0.33 1.32 0.66 2 1 C-2.95 5.95 -7.9 10.9 -13 16 C-13 11.93645091 -11.47015238 10.94829419 -8.75 8 C-7.96109375 7.13375 -7.1721875 6.2675 -6.359375 5.375 C-4.3351828 3.33740256 -2.34982916 1.63841299 0 0 Z " fill="#321ABF" transform="translate(28,14)"/>
<path d="M0 0 C5.28 0 10.56 0 16 0 C16.33 0.99 16.66 1.98 17 3 C11.30948637 2.4618629 5.65134116 1.8599867 0 1 C0 0.67 0 0.34 0 0 Z " fill="#6995FE" transform="translate(68,131)"/>
<path d="M0 0 C-2.66315194 2.66315194 -4.65344068 2.94426493 -8.359375 3.09765625 C-9.14828125 3.08605469 -9.9371875 3.07445312 -10.75 3.0625 C-11.54921875 3.05347656 -12.3484375 3.04445312 -13.171875 3.03515625 C-13.77515625 3.02355469 -14.3784375 3.01195312 -15 3 C-15.33 2.34 -15.66 1.68 -16 1 C-14.0852312 0.63571223 -12.16807707 0.28394694 -10.25 -0.0625 C-9.18265625 -0.25972656 -8.1153125 -0.45695313 -7.015625 -0.66015625 C-4.25228095 -0.97156937 -2.59053383 -0.8991416 0 0 Z " fill="#BAC8FE" transform="translate(116,148)"/>
<path d="M0 0 C5.36891879 0.49869404 10.69235173 1.02227532 16 2 C16 2.33 16 2.66 16 3 C11.05 3 6.1 3 1 3 C0.67 2.01 0.34 1.02 0 0 Z " fill="#253DFE" transform="translate(69,132)"/>
<path d="M0 0 C5.61 0 11.22 0 17 0 C17 0.33 17 0.66 17 1 C15.9275 1.144375 14.855 1.28875 13.75 1.4375 C10.24122492 1.85389686 10.24122492 1.85389686 7.9375 2.6875 C4.98548707 3.16363112 2.73579439 2.05701147 0 1 C0 0.67 0 0.34 0 0 Z " fill="#BCC3FE" transform="translate(70,135)"/>
<path d="M0 0 C2.97 0.33 5.94 0.66 9 1 C9 1.33 9 1.66 9 2 C4.23692563 2.95261487 -0.1666528 3.08333357 -5 3 C-5 2.67 -5 2.34 -5 2 C-3.35 1.67 -1.7 1.34 0 1 C0 0.67 0 0.34 0 0 Z " fill="#8DB5FE" transform="translate(96,132)"/>
</svg>
